<svg xmlns="http://www.w3.org/2000/svg" xmlns:xlink="http://www.w3.org/1999/xlink" xmlns:lucid="lucid" width="2021" height="1861"><g transform="translate(440.5 -79.5)" lucid:page-tab-id="0_0"><path d="M-300 742a2 2 0 0 1 2-2h416a2 2 0 0 1 2 2v1056a2 2 0 0 1-2 2h-416a2 2 0 0 1-2-2z" fill="#f9fbe7"/><use xlink:href="#a" transform="matrix(1,0,0,1,-284,756) translate(0 16.69921875)"/><use xlink:href="#b" transform="matrix(1,0,0,1,-284,756) translate(48.251953125 16.69921875)"/><use xlink:href="#c" transform="matrix(1,0,0,1,-284,756) translate(91.0986328125 16.69921875)"/><path d="M680 1560h120v120H680v-120z" stroke="#000" stroke-opacity="0" fill="url(#d)"/><path d="M758.82 1612.33v39c0 5.6-9.74 8.15-19.48 8.15-11.06 0-18.16-3.23-18.16-8.15v-38.7-.3c0-4.92 7.1-8.15 18.16-8.15 9.74 0 19.48 2.53 19.48 8.15zm20.56-18.54c-1.57 0-2.8 1.3-2.8 2.84 0 1.53 1.23 2.84 2.8 2.84 1.07 0 1.9.85 1.9 1.85v30.07c0 1-.83 1.85-1.9 1.85h-15.02v-3.77h7.5v-3.77h-7.5v-3.68h9.4c1.08 0 1.9.85 1.9 1.85v5.6h1.9v-26.53c-2.72-.84-4.7-3.3-4.7-6.3s1.98-5.47 4.7-6.3v-4h-75.13v4c2.73.84 4.7 3.3 4.7 6.3s-1.97 5.46-4.7 6.3v26.54h1.9v-5.6c0-1 .83-1.86 1.9-1.86h9.4v3.7h-7.5v3.76h7.5v3.77h-15c-1.08 0-1.9-.85-1.9-1.85v-30.07c0-1 .82-1.85 1.9-1.85 1.56 0 2.8-1.3 2.8-2.84 0-1.54-1.24-2.85-2.8-2.85-1.08 0-1.9-.78-1.9-1.86v-7.53c0-1 .82-1.84 1.9-1.84h78.75c1.07 0 1.9.85 1.9 1.85v7.54c0 1.08-.83 1.85-1.9 1.85zm-24.27 32.45v-8.77c-3.7 2.08-9.73 3.08-15.76 3.08-6.27 0-11.3-1.08-14.45-2.85v8.55c0 1.77 4.62 4.38 14.44 4.38 10.4 0 15.77-2.84 15.77-4.38zm0 12.62v-7.47c-3.7 2.08-9.73 3-15.76 3-6.27 0-11.3-1-14.45-2.84v7.3c0 1.78 4.62 4.47 14.44 4.47 10.4 0 15.77-2.93 15.77-4.46zm0 12.46v-7.3c-3.7 2.07-9.73 3-15.76 3-6.27 0-11.3-1-14.45-2.86v7.16c0 1.84 5.03 4.38 14.44 4.38 10.4 0 15.77-2.84 15.77-4.37zm-30.2-39c0 1.84 5.03 4.46 14.44 4.46 10.4 0 15.77-2.93 15.77-4.47 0-1.54-5.36-4.4-15.76-4.4-9.4 0-14.45 2.55-14.45 4.4zm41.35 2.15v-20.7h-3.7v9.47h-3.8v-11.3c0-1 .82-1.85 1.9-1.85h7.5c1 0 1.9.84 1.9 1.84v24.4c0 1.07-.9 1.9-1.9 1.9h-3.8v-3.76zm-45-11.23h-3.8v-9.46h-3.7v20.68h1.9v3.77h-3.8c-1 0-1.9-.85-1.9-1.92v-24.4c0-1 .9-1.83 1.9-1.83h7.5c1.08 0 1.9.84 1.9 1.84zm33.78-1.92h-3.8v-7.54h-5.62v5.68h-3.7v-7.54c0-1 .82-1.84 1.82-1.84h9.4c1.08 0 1.9.84 1.9 1.84zm-20.64-1.85v-5.7h-5.63v7.55h-3.8v-9.4c0-1 .83-1.83 1.9-1.83h9.4c1 0 1.83.84 1.83 1.84v7.54z" stroke="#000" stroke-opacity="0" fill="#fff"/><use xlink:href="#e" transform="matrix(1,0,0,1,650,1689) translate(49.29012345679012 17.77777777777778)"/><use xlink:href="#f" transform="matrix(1,0,0,1,650,1689) translate(30.83333333333333 44.44444444444444)"/><path d="M1240 890.2v30c0 6-8.4 9.96-21.36 9.96-8.16 0-16.32-1.68-20.16-5.28l-21.96 15.36 21.72 15.36c3.72-3.96 12.36-5.76 20.4-5.76 12.24 0 20.52 3.72 21.24 9.36h.12v30.84c0 6-8.4 9.96-21.36 9.96-11.04 0-22.32-3.12-22.32-9.96v-29.16l-21.72-15.36v23.52c0 7.32-10.56 12-26.64 12-13.44 0-27.96-3.72-27.96-12v-59.16h.12c1.44-7.44 15.12-10.92 27.84-10.92 15.84 0 26.64 4.92 26.64 12.24 0 .48-.12.96-.24 1.44h.24v22.44l21.72-15.36v-29.04h.12c0-.12-.12-.24-.12-.48 0-6.96 11.64-10.2 22.32-10.2 12.84 0 21.36 4.08 21.36 10.2zm-114.6 28.68v12.6c0 2.76 8.76 6.84 22.56 6.84 13.8 0 21.12-3.96 21.12-6.84v-12.36c-4.68 2.64-12 4.32-21.12 4.32-8.4 0-17.04-1.44-22.56-4.56zm22.56 38.28c13.8 0 21.12-3.84 21.12-6.6V939.4c-4.68 2.76-12 4.32-21.12 4.32-8.4 0-17.04-1.44-22.56-4.56v11.4c0 2.64 8.76 6.6 22.56 6.6zm0 18.48c13.8 0 21.12-3.84 21.12-6.6v-10.68c-4.68 2.76-12 4.32-21.12 4.32-8.4 0-17.04-1.44-22.56-4.56v10.92c0 2.28 7.8 6.6 22.56 6.6zm0-71.16c-14.76 0-22.56 4.44-22.56 6.72 0 2.4 7.8 6.72 22.56 6.72 13.56 0 21.12-3.96 21.12-6.72s-7.56-6.72-21.12-6.72zm70.68 5.76c10.56 0 15.96-3 15.96-4.68v-8.16c-3.84 1.92-9.24 3-15.96 3-6.12 0-12.48-1.08-16.8-3.24v8.4c0 1.44 5.76 4.68 16.8 4.68zm0 69.84c10.56 0 15.96-3 15.96-4.68v-8.16c-3.84 1.92-9.24 3-15.96 3-6.12 0-12.48-1.08-16.8-3.24v8.4c0 1.44 5.76 4.68 16.8 4.68zm0 14.4c10.44 0 15.96-2.88 15.96-4.44v-7.44c-3.72 1.92-9.24 3-15.96 3-6.24 0-12.48-.96-16.8-3.12v7.56c0 1.32 5.76 4.44 16.8 4.44zm0-69.84c10.44 0 15.96-2.88 15.96-4.44v-7.32c-3.72 1.8-9.24 2.88-15.96 2.88-6.24 0-12.48-.96-16.8-3.12v7.56c0 1.32 5.76 4.44 16.8 4.44zm0 30.72c-11.04 0-16.8 3.24-16.8 4.68 0 1.44 5.76 4.68 16.8 4.68 10.44 0 15.96-3 15.96-4.68 0-1.68-5.52-4.68-15.96-4.68zm0-69.84c-11.04 0-16.8 3.24-16.8 4.68 0 1.44 5.76 4.68 16.8 4.68 10.44 0 15.96-3 15.96-4.68 0-1.68-5.52-4.68-15.96-4.68z" stroke="#000" stroke-opacity="0" fill="#2e27ad"/><use xlink:href="#g" transform="matrix(1,0,0,1,1090,1009) translate(4.413580246913568 17.77777777777778)"/><use xlink:href="#h" transform="matrix(1,0,0,1,1090,1009) translate(57.37654320987653 17.77777777777778)"/><use xlink:href="#i" transform="matrix(1,0,0,1,1090,1009) translate(110.27777777777777 17.77777777777778)"/><use xlink:href="#j" transform="matrix(1,0,0,1,1090,1009) translate(144.78395061728395 17.77777777777778)"/><use xlink:href="#k" transform="matrix(1,0,0,1,1090,1009) translate(54.907407407407405 44.44444444444444)"/><path d="M180 282a30 30 0 0 1 30-30h1100a30 30 0 0 1 30 30v1488a30 30 0 0 1-30 30H210a30 30 0 0 1-30-30z" stroke="#474747" fill-opacity="0"/><path d="M241.97 240.24v-5.9c0-7.25-5.88-13.13-13.12-13.13-7.24 0-13.12 5.9-13.12 13.14v5.9h6.64v-5.9c0-3.58 2.9-6.5 6.48-6.5 3.57 0 6.48 2.92 6.48 6.5v5.9h6.64z" fill="#876a22"/><path d="M241.98 240.26h5.42v20.83H210v-20.84h5.72v-7.1c0-7.28 5.87-13.16 13.13-13.16 7.25 0 13.13 5.88 13.13 13.15v7.1zm-6.66 0v-7.1c0-3.6-2.88-6.5-6.47-6.5-3.6 0-6.47 2.9-6.47 6.5v7.1h12.94z" fill="#daa835"/><path d="M210 261.1h37.4v.9H210z" fill="#876a22"/><use xlink:href="#l" transform="matrix(1,0,0,1,180,1770) translate(557.1913580246913 11.11111111111111)"/><path d="M-82 845.42l57.98 8.62v5.1c0 7.53-25.98 13.63-58 13.63-32 0-57.98-6.1-57.98-13.64v-5.53z" fill="#8c3123"/><path d="M-81.98 882.13c24.2 0 44.93-3.53 53.58-8.5l2.88-4.78 1.15-4.4v5.45l-19 81c0 5.08-17.3 9.1-38.6 9.1-21.33 0-38.6-4.02-38.6-9.1l-19.02-81v-5.35l4.38 9.27c8.76 4.87 29.27 8.3 53.24 8.3z" fill="#8c3123"/><path d="M-82 840c32 0 58 6.12 58 13.62 0 7.5-26 13.57-58 13.57s-58-6.02-58-13.58c0-7.56 26-13.62 58-13.62z" fill="#e05243"/><path d="M-82 876.6c29.84 0 54.4-5.2 57.62-12.06l-19.02 81c0 5.05-17.3 9.1-38.6 9.1-21.33 0-38.6-4.05-38.6-9.1l-19.03-81c3.23 6.85 27.77 12.07 57.62 12.07z" fill="#e05243"/><path d="M-95.65 884.38h25.1v24.96h-25.1v-24.96zM-103.25 918.17c6.84 0 12.4 5.5 12.4 12.3 0 6.8-5.56 12.3-12.4 12.3-6.83 0-12.38-5.5-12.38-12.3 0-6.8 5.55-12.3 12.38-12.3zM-51.2 942.2H-76l12.4-22.94 12.4 22.94z" fill="#fff"/><use xlink:href="#m" transform="matrix(1,0,0,1,-139.99999999999997,960) translate(2.5061728395061778 17.77777777777778)"/><use xlink:href="#n" transform="matrix(1,0,0,1,-139.99999999999997,960) translate(74.11111111111111 17.77777777777778)"/><use xlink:href="#o" transform="matrix(1,0,0,1,-139.99999999999997,960) translate(22.845679012345684 44.44444444444444)"/><path d="M740 500c33.12 0 60 26.88 60 60 0 33.12-26.88 60-60 60-33.12 0-60-26.88-60-60 0-33.12 26.88-60 60-60zm0 114.6c30.12 0 54.6-24.48 54.6-54.6s-24.48-54.6-54.6-54.6-54.6 24.48-54.6 54.6 24.48 54.6 54.6 54.6zm35.52-38.28c1.56 0 2.76 1.32 2.76 2.76v12c0 1.44-1.2 2.64-2.76 2.64h-11.88c-1.44 0-2.64-1.2-2.64-2.64v-12c0-1.44 1.2-2.76 2.64-2.76h2.28v-6.48h-11.28v6.48h2.04c1.56 0 2.76 1.32 2.76 2.76v12c0 1.44-1.2 2.64-2.76 2.64H744.8c-1.56 0-2.76-1.2-2.76-2.64v-12c0-1.44 1.2-2.76 2.76-2.76h4.44v-9.12c0-1.56 1.2-2.76 2.64-2.76h4.44v-6.48h-32.64v6.48h4.44c1.44 0 2.64 1.2 2.64 2.76v9.12h4.44c1.56 0 2.76 1.32 2.76 2.76v12c0 1.44-1.2 2.64-2.76 2.64h-11.88c-1.56 0-2.76-1.2-2.76-2.64v-12c0-1.44 1.2-2.76 2.76-2.76h2.04v-6.48h-11.28v6.48h2.04c1.56 0 2.76 1.32 2.76 2.76v12c0 1.44-1.2 2.64-2.76 2.64h-11.64c-1.56 0-2.76-1.2-2.76-2.64v-12c0-1.44 1.2-2.76 2.76-2.76h4.2v-9.12c0-1.56 1.2-2.76 2.64-2.76h6.84v-9.24c0-1.44 1.2-2.64 2.76-2.64h16.32v-6.48h-16.32c-1.56 0-2.76-1.32-2.76-2.76v-21.48c0-1.56 1.2-2.76 2.76-2.76h38.16c1.56 0 2.76 1.2 2.76 2.76v21.48c0 1.44-1.2 2.76-2.76 2.76h-16.32v6.48h16.32c1.56 0 2.76 1.2 2.76 2.64v9.24h6.84c1.44 0 2.64 1.2 2.64 2.76v9.12zm-51.84-35.76h32.64V524.6h-32.64zm2.4 47.76h6.48v-6.48h-6.48zm21.48 0h6.36v-6.48h-6.36zm18.84 0h6.48v-6.48h-6.48zm-59.28 0h6.24v-6.48h-6.24z" stroke="#000" stroke-opacity="0" fill="#4d27aa"/><use xlink:href="#p" transform="matrix(1,0,0,1,650,629) translate(13.518518518518505 17.77777777777778)"/><use xlink:href="#q" transform="matrix(1,0,0,1,650,629) translate(69.07407407407406 17.77777777777778)"/><use xlink:href="#r" transform="matrix(1,0,0,1,650,629) translate(7.993827160493822 44.44444444444444)"/><use xlink:href="#s" transform="matrix(1,0,0,1,650,629) translate(122.62345679012346 44.44444444444444)"/><use xlink:href="#t" transform="matrix(1,0,0,1,650,629) translate(46.23456790123456 71.11111111111111)"/><path d="M600 880h120v120H600V880z" stroke="#fff" stroke-opacity="0" stroke-width="2" fill="#d86613"/><path d="M639.66 938.25c.13.13.23.26.4.35.23.23.45.4.72.58l.18.14.8.4.5.22h.36l.4.18c.76.27 1.57.58 2.5.9l1.5.4.75.22c4.2 1.03 7.88 1.47 12.23 1.43 6.6.13 12.2-.94 18.23-3.5 2.6-1.2 4.13-3.56 4.17-6.42V910.2c0-1-.54-1.84-1.43-2.28l-19.9-9.25c-.67-.36-1.43-.36-2.1 0l-19.94 9.25c-.9.44-1.43 1.3-1.43 2.27v23.04c0 1.8.58 3.3 1.75 4.7.1.13.18.22.3.3zm8.15.22l-1.33-.4c-.85-.27-1.57-.54-2.24-.76l-.58-.26-.54-.22c-.17-.1-.35-.18-.53-.27l-.4-.3-.18-.24-.14-.12-.14-.14c-.63-.76-.94-1.56-.94-2.54v-21.1l17.6 8.28v19.56c-3.5-.04-6.44-.44-9.85-1.25zm29.13-1.7c-5.1 2.2-9.8 3.17-15.36 3.22v-19.3l17.6-8.05v20.5c.05 1.6-.8 2.95-2.24 3.62zM660 901.67l17.7 8.26-17.43 7.8-.1-.08-17.2-8z" stroke="#fff" stroke-opacity="0" stroke-width="2" fill="#fff"/><path d="M687.62 924.3l-.83 3.05c7.15 2.13 11.64 5.14 11.64 7.85 0 5.3-15.8 11.2-38.44 11.2-22.63 0-38.44-5.9-38.44-11.2 0-2.7 4.5-5.72 11.65-7.85l-.82-3.06c-9 2.62-13.98 6.52-13.98 10.9 0 9.34 21.47 14.4 41.6 14.4 20.13 0 41.6-5.06 41.6-14.4 0-4.38-5-8.25-13.98-10.9zM687.54 954.63l-7.44-3.2c-.6-.28-1.2-.28-1.8 0l-7.6 3.26c-.7.36-1.1 1-1.1 1.75v8.25l-7.1-3.1c-.6-.3-1.2-.3-1.8 0l-7.17 3.1v-8.28c0-.8-.44-1.48-1.14-1.8l-7.5-3.2c-.56-.27-1.2-.27-1.8 0l-7.6 3.27c-.72.36-1.1 1-1.1 1.75v9.74c0 .8.44 1.47 1.2 1.8l7.44 3.2h.16c.27.12.5.17.82.17.27 0 .54-.02.76-.18l7.23-3.1v8.25c0 .8.44 1.45 1.15 1.8l7.44 3.2h.1c.27.13.54.2.87.2.27 0 .54-.07.8-.2l7.62-3.27c.7-.37 1.08-1 1.13-1.8v-8.18l7.07 3.1h.2c.28.12.56.17.88.2.27-.02.5-.08.7-.2l7.67-3.2c.7-.33 1.1-1 1.1-1.75v-9.83c0-.8-.45-1.48-1.2-1.8zm-8.37-.15l4.35 1.88-4.07 1.67-4.24-1.82zm-17.6 10.22l4.34 1.85-4.06 1.6-4.24-1.75zm-17.6-10.22l4.34 1.88-4.06 1.6-4.24-1.75zm-6.42 4.2l4.84 2.02v6.73l-4.85-2.06zm8.04 8.72V961l4.77-1.97v6.4zm9.56 1.46l4.83 2.06v6.67l-4.84-2.07zm7.98 8.76v-6.43l4.84-1.98v6.4zm9.62-18.95l4.78 2.03v6.73l-4.78-2.06zm8 8.76v-6.4l4.83-2v6.4z" stroke="#fff" stroke-opacity="0" stroke-width="2" fill="#fff"/><use xlink:href="#u" transform="matrix(1,0,0,1,570,1009) translate(23.827160493827165 17.77777777777778)"/><use xlink:href="#v" transform="matrix(1,0,0,1,570,1009) translate(79.75308641975309 17.77777777777778)"/><path d="M560 830a30 30 0 0 1 30-30h300a30 30 0 0 1 30 30v300a30 30 0 0 1-30 30H590a30 30 0 0 1-30-30z" fill-opacity="0"/><path d="M568.06 809.64l.73-.85.84-.74m9.43-5.9l1.66-.7 4.58-1.1 4.7-.36h14.3m14.27 0h2.86m14.28 0h28.6m14.27 0h2.86m14.28 0h28.6m14.27 0h2.86m14.28 0h28.6m14.27 0h2.86m14.28 0h28.6m14.27 0h2.86m14.28 0H890l4.7.37 4.57 1.1 1.66.68m9.43 5.9l.85.74.74.84m5.9 9.43l.7 1.66 1.1 4.58.36 4.7v14.3m0 14.27v2.86m0 14.28v28.6m0 14.27v2.86m0 14.28v28.6m0 14.27v2.86m0 14.28v28.6m0 14.27v2.86m0 14.28v28.6m0 14.27v2.86m0 14.28v14.3l-.37 4.7-1.1 4.57-.68 1.66m-5.9 9.43l-.74.85-.84.74m-9.43 5.9l-1.66.7-4.58 1.1-4.7.36h-14.3m-14.27 0h-2.86m-14.28 0h-28.6m-14.27 0h-2.86m-14.28 0h-28.6m-14.27 0h-2.86m-14.28 0h-28.6m-14.27 0h-2.86m-14.28 0h-28.6m-14.27 0h-2.86m-14.28 0H590l-4.7-.37-4.57-1.1-1.66-.68m-9.43-5.9l-.85-.74-.74-.84m-5.9-9.43l-.7-1.66-1.1-4.58-.36-4.7v-14.3m0-14.27v-2.86m0-14.28v-28.6m0-14.27v-2.86m0-14.28v-28.6m0-14.27v-2.86m0-14.28v-28.6m0-14.27v-2.86m0-14.28v-28.6m0-14.27v-2.86m0-14.28V830l.37-4.7 1.1-4.57.68-1.66" stroke="#474747" stroke-width="3" fill="none"/><use xlink:href="#w" transform="matrix(1,0,0,1,560,1130) translate(86.26543209876544 11.11111111111111)"/><use xlink:href="#x" transform="matrix(1,0,0,1,560,1130) translate(138.1172839506173 11.11111111111111)"/><use xlink:href="#y" transform="matrix(1,0,0,1,560,1130) translate(217.00617283950618 11.11111111111111)"/><path d="M-25 1642.36c0 31.8-25.76 57.63-57.5 57.63s-57.5-25.83-57.5-57.64c0-31.8 25.76-57.63 57.5-57.63s57.5 25.82 57.5 57.63z" fill="#9d5025"/><path d="M-140 1637.62h115v4.73h-115v-4.73z" fill="#9d5025"/><path d="M-25 1637.63c0 31.8-25.76 57.63-57.5 57.63s-57.5-25.82-57.5-57.63c0-31.8 25.76-57.63 57.5-57.63s57.5 25.82 57.5 57.63z" fill="#f58536"/><path d="M-78.78 1631.37h-7.42l-4-34.33h15.4l-3.98 34.33z" fill="#fff"/><path d="M-49.27 1656.66l2.97-2.47-10.75-16.1-23.54-8.24-1.9 13.02 21.2 2 12.03 11.78zM-115.78 1656.66l-2.93-2.47 10.7-16.1 23.57-8.24 1.92 13.02-21.23 2-12.05 11.78zM-71.84 1597.03c0 5.9-4.78 10.7-10.67 10.7-5.9 0-10.68-4.8-10.68-10.7 0-5.9 4.78-10.7 10.67-10.7 5.88 0 10.66 4.8 10.66 10.7z" fill="#fff"/><path d="M-82.5 1608.68c-6.42 0-11.63-5.22-11.63-11.65 0-6.42 5.2-11.64 11.62-11.64 6.4 0 11.6 5.2 11.6 11.63h.02c0 6.43-5.2 11.65-11.63 11.65zm0-21.4c-5.38 0-9.74 4.37-9.74 9.75s4.36 9.76 9.73 9.76c5.36 0 9.73-4.4 9.73-9.77 0-5.38-4.37-9.75-9.74-9.75z" fill="#f58536"/><path d="M-79.02 1597.03c0 1.93-1.56 3.5-3.5 3.5-1.9 0-3.48-1.57-3.48-3.5s1.57-3.5 3.5-3.5c1.92 0 3.48 1.57 3.48 3.5z" fill="#f58536"/><path d="M-74.82 1636.24c0 4.26-3.44 7.7-7.7 7.7-4.23 0-7.67-3.44-7.67-7.7 0-4.25 3.45-7.7 7.7-7.7 4.24 0 7.68 3.45 7.68 7.7z" fill="#fff"/><path d="M-82.5 1644.9c-4.78-.02-8.64-3.9-8.63-8.67.02-4.78 3.9-8.65 8.65-8.64 4.75 0 8.6 3.85 8.62 8.6 0 4.8-3.85 8.68-8.63 8.7zm0-15.44c-3.74.02-6.74 3.05-6.74 6.78 0 3.74 3.03 6.75 6.76 6.73 3.73 0 6.73-3.02 6.73-6.76-.03-3.7-3.05-6.72-6.76-6.72z" fill="#f58536"/><path d="M-80.15 1636.24c0 1.3-1.06 2.37-2.36 2.37-1.3 0-2.37-1.05-2.37-2.36 0-1.3 1.06-2.36 2.36-2.36 1.3 0 2.35 1.06 2.35 2.36z" fill="#f58536"/><path d="M-107.32 1654h49.6v27.48h-49.6V1654z" fill="#fff"/><path d="M-104.82 1656.22h3.77v23.04h-3.77v-23.04zM-98 1656.22h3.76v23.04H-98v-23.04zM-91.2 1656.22h3.78v23.04h-3.77v-23.04zM-84.4 1656.22h3.78v23.04h-3.78v-23.04zM-77.6 1656.22h3.78v23.04h-3.77v-23.04zM-70.77 1656.22H-67v23.04h-3.77v-23.04zM-63.97 1656.22h3.77v23.04h-3.77v-23.04z" fill="#fbbf93"/><use xlink:href="#e" transform="matrix(1,0,0,1,-139.99999999999997,1700) translate(16.79012345679012 17.77777777777778)"/><use xlink:href="#z" transform="matrix(1,0,0,1,-139.99999999999997,1700) translate(34.10493827160494 44.44444444444444)"/><path d="M-144 1100h120v120h-120v-120z" stroke="#fff" stroke-opacity="0" stroke-width="2" fill="#d6242d"/><path d="M-65.87 1180.44l2.27-2.27 19.13 19.12-2.27 2.26-19.13-19.12zM-123.53 1122.74l2.25-2.25 21.2 21.2-2.24 2.25-21.2-21.2zM-118.73 1192.56l11.2-11.2 2.26 2.26-11.2 11.2-2.26-2.26zM-62.73 1136.54l11.2-11.2 2.26 2.27-11.2 11.2-2.26-2.26z" stroke="#fff" stroke-opacity="0" stroke-width="1.41" fill="#fff"/><path d="M-47.26 1158.43c-.32-7.5-2.5-13.83-6.9-19.9l-2.6 1.9c4 5.5 5.98 11.2 6.3 18h-3.2v3.18l3.2.02c-.28 6.84-2.27 12.57-6.3 18.13l2.6 1.85c4.42-6.12 6.62-12.45 6.9-19.98h3.2v-3.24zM-103.66 1132.83c5.53-4 11.24-6 18.06-6.28v3.08h3.2v-3.08c6.82.3 12.53 2.28 18.06 6.28l1.94-2.6c-6.13-4.4-12.44-6.6-20-6.88v-3.32h-3.2v3.32c-7.56.28-13.87 2.47-20 6.88zM-64.34 1187.33c-5.53 4-11.24 6-18.06 6.3v-3.22h-3.2v3.22c-6.82-.3-12.53-2.3-18.06-6.3l-1.94 2.6c6.13 4.42 12.44 6.6 20 6.9v3.2h3.2v-3.2c7.56-.3 13.87-2.48 20-6.9zM-113.84 1181.6l2.6-1.9c-4.03-5.5-6.02-11.25-6.3-18.1h3.2v-3.2h-3.2c.32-6.8 2.3-12.5 6.3-18l-2.6-1.9c-4.4 6.07-6.58 12.4-6.9 19.9h-3.2v3.2h3.2c.28 7.54 2.48 13.88 6.9 20zM-76.16 1138.8c-2.3-1.9-4.86-2.8-7.84-2.77-6.18 0-11.2 4.36-11.2 9.76v7.8h-3.2c-.9 0-1.6.75-1.6 1.6v22.43c0 .44.16.82.48 1.13.3.3.67.47 1.12.47h28.8c.9 0 1.6-.73 1.6-1.6v-22.42c0-.42-.16-.77-.45-1.07-.32-.34-.7-.52-1.15-.52h-3.2v-7.8c-.03-2.8-1.18-5.23-3.36-7zm-15.84 7c0-3.63 3.62-6.57 8-6.57 2.18-.05 4.06.6 5.76 1.98 1.44 1.18 2.2 2.74 2.27 4.6v7.8h-16zm20.8 15.85H-76v3.2h4.8v3.2H-76v3.2h4.8v4.8h-25.6v-19.24h25.6z" stroke="#fff" stroke-opacity="0" stroke-width="2" fill="#fff"/><path d="M-85.6 1168.4v4.43h3.2v-4.42c1.35-.47 2.3-1.43 2.8-2.8.9-2.43-.37-5.12-2.8-6-2.43-.87-5.13.38-6 2.8-.9 2.45.37 5.13 2.8 6zm1.6-6.1c.96 0 1.73.76 1.74 1.72 0 .95-.75 1.73-1.7 1.75-.96 0-1.75-.76-1.76-1.72v-.06c0-.94.78-1.7 1.72-1.7z" stroke="#fff" stroke-opacity="0" stroke-width="2" fill="#fff"/><use xlink:href="#u" transform="matrix(1,0,0,1,-174.00000000000003,1229) translate(24.413580246913583 17.77777777777778)"/><use xlink:href="#A" transform="matrix(1,0,0,1,-174.00000000000003,1229) translate(80.33950617283949 17.77777777777778)"/><use xlink:href="#B" transform="matrix(1,0,0,1,-174.00000000000003,1229) translate(46.23456790123456 44.44444444444444)"/><path d="M-144 1360h120v120h-120v-120z" stroke="#fff" stroke-opacity="0" fill="#cc2264"/><path d="M-93.62 1436.8h-17.6c-1.84-.05-3.44-.53-5.04-1.48-5.04-3.12-7.84-8.3-7.76-14.27-.32-6.8 3.92-12.73 10.4-14.63v-1.27c.24-8.5 4.8-15.7 12.56-19.34 8.24-3.63 17.37-1.84 23.6 4.7 2.17 2.18 3.6 4.3 4.8 7.04 1.77-1.37 3.7-2.06 5.93-2.06 4.32 0 9.28 3.28 10.16 10.52 4.08 1 12.56 4.33 12.56 15.2.23 5.72-2.57 10.74-7.6 13.43l-1.6-2.8c4-2.16 6.15-6.13 5.9-10.62 0-9.4-7.75-11.72-11.2-12.3-.4-.1-.8-.32-1.03-.7-.24-.3-.32-.73-.24-1.15-.48-5.8-3.84-8.4-7.04-8.4-2.17.05-3.93 1-5.2 2.75-.33.47-.9.7-1.53.63-.56-.1-1.04-.47-1.28-1.05-1.05-3.23-2.66-5.76-4.98-8.2-5.36-5.5-13.04-7.02-20.08-3.96-6.4 3.12-10.32 9.14-10.56 16.28 0 .8.08 1.48.16 2.22.08.84-.48 1.63-1.28 1.8-5.68 1.16-9.6 6.18-9.28 11.93-.16 4.87 2.16 9.04 6.32 11.52 1.04.7 2.08 1 3.28 1h17.6z" stroke="#fff" stroke-opacity="0" fill="#fff"/><path d="M-45.77 1446.4l-11.38-11.4c2.18-4.86 2.05-9.9-.37-14.64-4.28-8.35-14.53-11.68-22.86-7.37-8.33 4.26-11.66 14.5-7.38 22.8 4.28 8.35 14.48 11.67 22.86 7.4l11.2 11.18c1.1 1.13 2.42 1.62 3.97 1.62 1.55 0 2.9-.5 4-1.62h.05c2.14-2.24 2.14-5.8-.1-8zm-26.87-4.54c-7.6 0-13.75-6.15-13.75-13.74 0-7.58 6.16-13.73 13.76-13.73 7.6-.02 13.76 6.13 13.76 13.72 0 7.6-6.15 13.74-13.76 13.74zM-48 1452.1c-.96.9-2.5.9-3.46 0l-10.66-10.7c1.37-1.07 2.4-2.14 3.42-3.58l10.7 10.82c.95.94.95 2.47 0 3.45z" stroke="#fff" stroke-opacity="0" fill="#fff"/><path d="M-68.24 1420.7l-1.9 2.56c-1.2-.88-2.53-1.2-4-1-2.94.43-4.98 3.18-4.55 6.12h.02c.2 1.5.9 2.73 2.13 3.62l-1.85 2.5c-3.76-2.9-4.47-8.3-1.57-12.05 2.82-3.67 8.02-4.46 11.8-1.76z" stroke="#fff" stroke-opacity="0" fill="#fff"/><use xlink:href="#e" transform="matrix(1,0,0,1,-174.00000000000003,1489) translate(49.29012345679012 17.77777777777778)"/><use xlink:href="#C" transform="matrix(1,0,0,1,-174.00000000000003,1489) translate(30 44.44444444444444)"/><path d="M760 880h120v120H760V880z" stroke="#fff" stroke-opacity="0" stroke-width="2" fill="#d86613"/><path d="M799.66 938.25c.13.13.23.26.4.35.23.23.45.4.72.58l.18.14.8.4.5.22h.36l.4.18c.76.27 1.57.58 2.5.9l1.5.4.75.22c4.2 1.03 7.88 1.47 12.23 1.43 6.6.13 12.2-.94 18.23-3.5 2.6-1.2 4.13-3.56 4.17-6.42V910.2c0-1-.54-1.84-1.43-2.28l-19.9-9.25c-.67-.36-1.43-.36-2.1 0l-19.94 9.25c-.9.44-1.43 1.3-1.43 2.27v23.04c0 1.8.58 3.3 1.75 4.7.1.13.18.22.3.3zm8.15.22l-1.33-.4c-.85-.27-1.57-.54-2.24-.76l-.58-.26-.54-.22c-.17-.1-.35-.18-.53-.27l-.4-.3-.18-.24-.14-.12-.14-.14c-.63-.76-.94-1.56-.94-2.54v-21.1l17.6 8.28v19.56c-3.5-.04-6.44-.44-9.85-1.25zm29.13-1.7c-5.1 2.2-9.8 3.17-15.36 3.22v-19.3l17.6-8.05v20.5c.05 1.6-.8 2.95-2.24 3.62zM820 901.67l17.7 8.26-17.43 7.8-.1-.08-17.2-8z" stroke="#fff" stroke-opacity="0" stroke-width="2" fill="#fff"/><path d="M847.62 924.3l-.83 3.05c7.15 2.13 11.64 5.14 11.64 7.85 0 5.3-15.8 11.2-38.44 11.2-22.63 0-38.44-5.9-38.44-11.2 0-2.7 4.5-5.72 11.65-7.85l-.82-3.06c-9 2.62-13.98 6.52-13.98 10.9 0 9.34 21.47 14.4 41.6 14.4 20.13 0 41.6-5.06 41.6-14.4 0-4.38-5-8.25-13.98-10.9zM847.54 954.63l-7.44-3.2c-.6-.28-1.2-.28-1.8 0l-7.6 3.26c-.7.36-1.1 1-1.1 1.75v8.25l-7.1-3.1c-.6-.3-1.2-.3-1.8 0l-7.17 3.1v-8.28c0-.8-.44-1.48-1.14-1.8l-7.5-3.2c-.56-.27-1.2-.27-1.8 0l-7.6 3.27c-.72.36-1.1 1-1.1 1.75v9.74c0 .8.44 1.47 1.2 1.8l7.44 3.2h.16c.27.12.5.17.82.17.27 0 .54-.02.76-.18l7.23-3.1v8.25c0 .8.44 1.45 1.15 1.8l7.44 3.2h.1c.27.13.54.2.87.2.27 0 .54-.07.8-.2l7.62-3.27c.7-.37 1.08-1 1.13-1.8v-8.18l7.07 3.1h.2c.28.12.56.17.88.2.27-.02.5-.08.7-.2l7.67-3.2c.7-.33 1.1-1 1.1-1.75v-9.83c0-.8-.45-1.48-1.2-1.8zm-8.37-.15l4.35 1.88-4.07 1.67-4.24-1.82zm-17.6 10.22l4.34 1.85-4.06 1.6-4.24-1.75zm-17.6-10.22l4.34 1.88-4.06 1.6-4.24-1.75zm-6.42 4.2l4.84 2.02v6.73l-4.85-2.06zm8.04 8.72V961l4.77-1.97v6.4zm9.56 1.46l4.83 2.06v6.67l-4.84-2.07zm7.98 8.76v-6.43l4.84-1.98v6.4zm9.62-18.95l4.78 2.03v6.73l-4.78-2.06zm8 8.76v-6.4l4.83-2v6.4z" stroke="#fff" stroke-opacity="0" stroke-width="2" fill="#fff"/><use xlink:href="#u" transform="matrix(1,0,0,1,730,1009) translate(23.827160493827165 17.77777777777778)"/><use xlink:href="#v" transform="matrix(1,0,0,1,730,1009) translate(79.75308641975309 17.77777777777778)"/><path d="M740 620.5V744a6 6 0 0 0 6 6h68a6 6 0 0 1 6 6v107.62" stroke="#3a414a" fill="none"/><path d="M740 620l.5-.02v.53h-1V620z" stroke="#3a414a" stroke-width=".05" fill="#3a414a"/><path d="M820 878.38l-4.63-14.26h9.26z" stroke="#3a414a" fill="#3a414a"/><path d="M740 620.5V744a6 6 0 0 1-6 6h-68a6 6 0 0 0-6 6v107.62" stroke="#3a414a" fill="none"/><path d="M740 620l.5-.02v.53h-1V620z" stroke="#3a414a" stroke-width=".05" fill="#3a414a"/><path d="M660 878.38l-4.63-14.26h9.26z" stroke="#3a414a" fill="#3a414a"/><path d="M660 1000.5v33.5a6 6 0 0 0 6 6h408a6 6 0 0 0 6-6v-88a6 6 0 0 1 6-6h17.62" stroke="#3a414a" fill="none"/><path d="M660.5 1000.5h-1v-.5h1z" stroke="#3a414a" stroke-width=".05" fill="#3a414a"/><path d="M1118.38 940l-14.26 4.63v-9.26z" stroke="#3a414a" fill="#3a414a"/><path d="M880.5 940h223.12" stroke="#3a414a" fill="none"/><path d="M880.5 940.5h-.5v-1h.5z" stroke="#3a414a" stroke-width=".05" fill="#3a414a"/><path d="M1118.38 940l-14.26 4.63v-9.26z" stroke="#3a414a" fill="#3a414a"/><path d="M660 1000.5V1274a6 6 0 0 0 6 6h68a6 6 0 0 1 6 6v257.62" stroke="#3a414a" fill="none"/><path d="M660.5 1000.5h-1v-.5h1z" stroke="#3a414a" stroke-width=".05" fill="#3a414a"/><path d="M740 1558.38l-4.63-14.26h9.26z" stroke="#3a414a" fill="#3a414a"/><path d="M820 1000.5V1274a6 6 0 0 1-6 6h-68a6 6 0 0 0-6 6v257.62" stroke="#3a414a" fill="none"/><path d="M820.5 1000.5h-1v-.5h1z" stroke="#3a414a" stroke-width=".05" fill="#3a414a"/><path d="M740 1558.38l-4.63-14.26h9.26z" stroke="#3a414a" fill="#3a414a"/><path d="M740 300c-22.08 0-40-17.92-40-40s17.92-40 40-40 40 17.92 40 40-17.92 40-40 40zm0-76.56c-20.24 0-36.56 16.32-36.56 36.56 0 20.24 16.32 36.56 36.56 36.56 20.24 0 36.56-16.32 36.56-36.56 0-20.24-16.32-36.56-36.56-36.56z" stroke="#fff" stroke-opacity="0" fill="#693cc5"/><path d="M759.14 284.03h-6.38c-.96 0-1.7-.75-1.7-1.7v-33c-3.47-1.8-6.76-2.6-10.64-2.7-4.26.1-7.8 1.04-11.55 3.07v32.63c0 .95-.75 1.7-1.67 1.7h-6.34c-.96 0-1.7-.75-1.7-1.7V245.2c0-.5.2-.93.57-1.26 6.1-5 12.85-7.32 20.7-7.13 7.4-.14 13.8 1.94 19.75 6.33.46.34.67.8.67 1.33v37.87c0 .95-.75 1.7-1.7 1.7zm-4.67-3.4h2.96V245.3c-5.2-3.58-10.67-5.2-17-5.1-6.73-.18-12.52 1.7-17.86 5.77v34.66h2.92V248.6c0-.65.32-1.22.9-1.5 4.5-2.55 8.85-3.78 14.02-3.87 4.7.14 8.7 1.18 12.88 3.4h.17c.63.28 1 .85 1 1.56z" stroke="#fff" stroke-opacity="0" fill="#693cc5"/><use xlink:href="#D" transform="matrix(1,0,0,1,670,309) translate(32.376543209876544 17.77777777777778)"/><use xlink:href="#E" transform="matrix(1,0,0,1,670,309) translate(28.672839506172842 44.44444444444444)"/><path d="M740 300.5v183.12" stroke="#3a414a" fill="none"/><path d="M740 300l.5-.02v.53h-1v-.53z" stroke="#3a414a" stroke-width=".05" fill="#3a414a"/><path d="M740 498.38l-4.63-14.26h9.26z" stroke="#3a414a" fill="#3a414a"/><path d="M400 706a6 6 0 0 1 6-6h608a6 6 0 0 1 6 6v708a6 6 0 0 1-6 6H406a6 6 0 0 1-6-6z" fill="#fff" fill-opacity="0"/><path d="M403.7 700.47l.45-.18.9-.23.95-.07h2m4 0h4m4 0h4m4 0h4m4 0h4m4 0h4m4 0h4m4 0h4m4 0h4m4 0h4m4 0h4m4 0h4m4 0h4m4 0h4m4 0h4m4 0h4m4 0h4m4 0h4m4 0h4m4 0h4m4 0h4m4 0h4m4 0h4m4 0h4m4 0h4m4 0h4m4 0h4m4 0h4m4 0h4m4 0h4m4 0h4m4 0h4m4 0h4m4 0h4m4 0h4m4 0h4m4 0h4m4 0h4m4 0h4m4 0h4m4 0h4m4 0h4m4 0h4m4 0h4m4 0h4m4 0h4m4 0h4m4 0h4m4 0h4m4 0h4m4 0h4m4 0h4m4 0h4m4 0h4m4 0h4m4 0h4m4 0h4m4 0h4m4 0h4m4 0h4m4 0h4m4 0h4m4 0h4m4 0h4m4 0h4m4 0h4m4 0h4m4 0h4m4 0h4m4 0h4m4 0h4m4 0h4m4 0h4m4 0h4m4 0h4m4 0h4m4 0h2l.94.07.9.22.45.17m3.23 3.24l.18.45.23.9.07.95v2m0 3.97v3.97m0 3.98v3.98m0 3.98v3.97m0 3.98v3.98m0 4v3.96m0 3.98v3.98m0 3.98v3.97m0 3.98v3.98m0 3.98v3.98m0 3.98v3.98m0 3.98v3.97m0 3.97v3.98m0 3.98v3.97m0 3.98v3.98m0 3.98v3.98m0 3.97v3.97m0 3.98v3.98m0 3.97v3.98m0 3.98v3.98m0 3.97v4m0 3.97v3.97m0 3.98V883m0 3.98v3.98m0 3.97v3.98m0 4v3.97m0 3.97v3.98m0 3.98v3.98m0 3.97v3.98m0 3.98v3.98m0 3.98v3.98m0 3.98v3.98m0 3.97v3.98m0 3.98v3.98m0 3.98v3.98m0 3.98v3.98m0 3.97v3.97m0 3.98v3.98m0 3.97v3.98m0 3.98v3.98m0 3.97v4m0 3.97v3.98m0 3.97v3.98m0 3.98v3.98m0 3.97v3.98m0 4v3.97m0 3.97v3.98m0 3.98v3.98m0 3.97v3.98m0 3.98v4m0 3.96v3.98m0 3.98v3.98m0 3.97v3.98m0 3.98v3.98m0 3.98v3.98m0 3.98v3.98m0 3.97v3.97m0 3.98v3.98m0 3.97v3.98m0 3.98v3.98m0 3.98v3.97m0 3.97v3.98m0 3.97v3.98m0 3.98v3.98m0 3.97v3.98m0 4v3.97m0 3.98v3.97m0 3.98v3.98m0 3.97v3.98m0 3.98v4m0 3.96v3.98m0 3.98v3.98m0 3.98v3.97m0 3.98v3.98m0 3.98v3.98m0 3.98v3.98m0 3.98v3.97m0 3.98v3.98m0 3.98v3.98m0 3.98v3.98m0 3.98v3.97m0 3.97v3.98m0 3.98v3.97m0 3.98v3.98m0 3.98v3.97m0 4v3.97m0 3.98v3.97m0 3.98v3.98m0 3.98v3.97m0 3.98v2l-.07.94-.22.9-.17.45m-3.24 3.23l-.45.18-.9.23-.95.07h-2m-4 0h-4m-4 0h-4m-4 0h-4m-4 0h-4m-4 0h-4m-4 0h-4m-4 0h-4m-4 0h-4m-4 0h-4m-4 0h-4m-4 0h-4m-4 0h-4m-4 0h-4m-4 0h-4m-4 0h-4m-4 0h-4m-4 0h-4m-4 0h-4m-4 0h-4m-4 0h-4m-4 0h-4m-4 0h-4m-4 0h-4m-4 0h-4m-4 0h-4m-4 0h-4m-4 0h-4m-4 0h-4m-4 0h-4m-4 0h-4m-4 0h-4m-4 0h-4m-4 0h-4m-4 0h-4m-4 0h-4m-4 0h-4m-4 0h-4m-4 0h-4m-4 0h-4m-4 0h-4m-4 0h-4m-4 0h-4m-4 0h-4m-4 0h-4m-4 0h-4m-4 0h-4m-4 0h-4m-4 0h-4m-4 0h-4m-4 0h-4m-4 0h-4m-4 0h-4m-4 0h-4m-4 0h-4m-4 0h-4m-4 0h-4m-4 0h-4m-4 0h-4m-4 0h-4m-4 0h-4m-4 0h-4m-4 0h-4m-4 0h-4m-4 0h-4m-4 0h-4m-4 0h-4m-4 0h-4m-4 0h-4m-4 0h-4m-4 0h-4m-4 0h-4m-4 0h-4m-4 0h-4m-4 0h-4m-4 0h-4m-4 0h-2l-.94-.07-.9-.22-.45-.17m-3.23-3.24l-.18-.45-.23-.9-.07-.95v-2m0-3.97v-3.97m0-3.98v-3.98m0-3.98v-3.97m0-3.98v-3.98m0-4v-3.96m0-3.98v-3.98m0-3.98v-3.97m0-3.98v-3.98m0-3.98v-3.98m0-3.98v-3.98m0-3.98v-3.97m0-3.97v-3.98m0-3.98v-3.97m0-3.98v-3.98m0-3.98v-3.98m0-3.97v-3.97m0-3.98v-3.97m0-3.98v-3.98m0-3.98v-3.97m0-3.98v-4m0-3.97v-3.98m0-3.97V1237m0-3.98v-3.97m0-3.98v-3.98m0-4v-3.96m0-3.98v-3.98m0-3.98v-3.98m0-3.97v-3.98m0-3.98v-3.98m0-3.98v-3.98m0-3.98v-3.98m0-3.97v-3.98m0-3.98v-3.98m0-3.98v-3.98m0-3.98v-3.98m0-3.97v-3.97m0-3.98v-3.98m0-3.97v-3.98m0-3.98v-3.98m0-3.97v-4m0-3.97v-3.98m0-3.97v-3.98m0-3.98v-3.98m0-3.97V1062m0-4v-3.97m0-3.97v-3.98m0-3.98v-3.98m0-3.97v-3.98m0-3.98v-4m0-3.96v-3.98m0-3.98v-3.98m0-3.97v-3.98m0-3.98v-3.98m0-3.98v-3.98m0-3.98v-3.98m0-3.97v-3.97m0-3.98v-3.98m0-3.97v-3.98m0-3.98v-3.98m0-3.98v-3.97m0-3.97v-3.98m0-3.98v-3.97m0-3.98v-3.98m0-3.98v-3.97m0-4v-3.97m0-3.97v-3.98m0-3.98v-3.98m0-3.98v-3.97m0-3.98v-4m0-3.97v-3.97m0-3.98v-3.98m0-3.98v-3.97m0-3.98v-3.98m0-3.98v-3.98m0-3.98v-3.98m0-3.98v-3.97m0-3.98v-3.98m0-3.98v-3.98m0-3.98v-3.98m0-3.98v-3.97m0-3.97v-3.98m0-3.98v-3.97m0-3.98v-3.98m0-3.98v-3.97m0-4v-3.97m0-3.98v-3.97m0-3.98v-3.98m0-3.98v-3.97m0-3.98v-2l.07-.94.22-.9.17-.45" stroke="#d86613" fill="none"/><path d="M400 700h56v56h-56v-56z" stroke="#fff" stroke-opacity="0" stroke-width="2" fill="#d86613"/><path d="M427.83 748.1c-.13 0-.27-.02-.37-.1l-17-9.8c-.27-.15-.4-.4-.4-.67v-19.85c0-.28.13-.52.4-.7l15.64-9c.3-.25.78-.13 1.02.2.1.16.14.32.14.48v8.62c0 .24-.14.48-.38.64l-7.83 4.47v10.42l8.82 5.07 7.7-4.48c.23-.16.5-.16.75 0l7.38 4.27c.28.1.4.35.4.67 0 .28-.12.53-.4.65L428.2 748c-.1.08-.23.12-.37.12zM411.6 737l16.64 9.63 14.3-8.3-5.95-3.42-7.95 4.6c-.27.12-.54.12-.8 0l-9.93-5.72c-.27-.16-.4-.4-.4-.68V722c0-.3.13-.54.4-.7l7.8-4.47V710l-14.16 8.2z" stroke="#fff" stroke-opacity="0" stroke-width="2" fill="#fff"/><path d="M445.13 736.6c-.15 0-.27-.04-.4-.13l-7.4-4.27c-.25-.14-.4-.37-.4-.7v-9.02l-7.8-4.5c-.27-.14-.4-.4-.4-.68v-8.6c0-.3.13-.55.4-.66.2-.14.5-.14.73 0l15.7 9c.25.14.38.4.38.7v18c0 .33-.13.56-.4.7-.13.1-.25.15-.4.15zm-6.68-5.57l5.98 3.44V718.2l-14.2-8.18v6.8l7.84 4.55c.26.14.42.37.4.68z" stroke="#fff" stroke-opacity="0" stroke-width="2" fill="#fff"/><g><use xlink:href="#F" transform="matrix(1,0,0,1,471,720) translate(0 17.77777777777778)"/><use xlink:href="#G" transform="matrix(1,0,0,1,471,720) translate(51.79012345679012 17.77777777777778)"/><use xlink:href="#H" transform="matrix(1,0,0,1,471,720) translate(128.14814814814815 17.77777777777778)"/></g><g filter="url(#I)"><path d="M402.28 882.28h124.44v124.44H402.28z" stroke="#fff" stroke-opacity="0" fill="#d86613"/><path d="M524.5 884.5v120h-120v-120h120m4.5-4.5H400v129h129V880z" stroke="#fff" stroke-opacity="0" fill="#fff"/><path d="M503.2 928.57v-3.04h-6.07v-6.6c0-3.04-2.5-5.54-5.54-5.54H485v-6.08h-3.05v6.07h-6.07v-6.08h-3.03v6.07h-6.07v-6.08h-3.04v6.07h-6.07v-6.08h-3.04v6.07h-6.06v-6.08h-3.04v6.07h-6.6c-3.04 0-5.54 2.5-5.54 5.53v6.6h-6.08v3.04h6.07v6.06h-6.08v3.04h6.07v6.07h-6.08v3.04h6.07v6.07h-6.08v3.03h6.07v6.07h-6.08V965h6.07v6.6c0 3.02 2.5 5.53 5.53 5.53h6.6v6.07h3.04v-6.07h6.06v6.07h3.04v-6.07h6.07v6.07h3.04v-6.07h6.07v6.07h3.03v-6.07h6.07v6.07H485v-6.07h6.6c3.02 0 5.53-2.5 5.53-5.54V965h6.07v-3.05h-6.07v-6.07h6.07v-3.03h-6.07v-6.07h6.07v-3.04h-6.07v-6.07h6.07v-3.03h-6.07v-6.07zm-9.1 43.02c0 1.36-1.14 2.5-2.5 2.5h-52.67c-1.37 0-2.5-1.14-2.5-2.5v-52.67c0-1.37 1.13-2.5 2.5-2.5h52.66c1.36 0 2.5 1.13 2.5 2.5z" stroke="#fff" stroke-opacity="0" fill="#fff"/><path d="M479.87 927.05h-29.22c-1.96 0-3.6 1.64-3.6 3.6v29.22c0 1.96 1.64 3.6 3.6 3.6h29.22c1.96 0 3.6-1.64 3.6-3.6v-29.22c0-1.96-1.64-3.6-3.6-3.6zm.58 32.82c0 .32-.26.58-.58.58h-29.22c-.32 0-.58-.26-.58-.6v-29.2c0-.32.25-.58.58-.58h29.22c.32 0 .58.25.58.58z" stroke="#fff" stroke-opacity="0" fill="#fff"/><use xlink:href="#J" transform="matrix(1,0,0,1,370,1018) translate(57.49382716049382 17.77777777777778)"/></g><path d="M120.5 1390.08h494.04a6 6 0 0 0 6-6v-367.7" stroke="#3a414a" fill="none"/><path d="M120.5 1390.58h-.5v-1h.5z" stroke="#3a414a" stroke-width=".05" fill="#3a414a"/><path d="M620.54 1001.62l4.63 14.26h-9.27z" stroke="#3a414a" fill="#3a414a"/><path d="M120.5 1390.08h653.82a6 6 0 0 0 6-6v-367.7" stroke="#3a414a" fill="none"/><path d="M120.5 1390.58h-.5v-1h.5z" stroke="#3a414a" stroke-width=".05" fill="#3a414a"/><path d="M780.32 1001.62l4.64 14.26h-9.27z" stroke="#3a414a" fill="#3a414a"/><path d="M-420 106a6 6 0 0 1 6-6h1968a6 6 0 0 1 6 6v1808a6 6 0 0 1-6 6H-414a6 6 0 0 1-6-6z" stroke="#232f3e" fill="#fff" fill-opacity="0"/><path d="M-420 100h56v56h-56v-56z" stroke="#fff" stroke-opacity="0" fill="#232f3e"/><path d="M-379.12 141.22h-25c-4.13.05-7.57-3.1-7.9-7.2v-.64c-.15-3.4 1.97-6.38 5.25-7.36v-.66c.12-4.22 2.44-7.75 6.24-9.57 4.13-1.86 8.73-.96 11.8 2.3 1.1 1.1 1.85 2.2 2.45 3.6 1.2-1 2.72-1.32 4.24-.9 2.24.8 3.68 2.74 3.76 5.1 3.68.65 6.32 3.8 6.28 7.56 0 7.07-7.04 7.73-7.12 7.76zm-26.7-13.88c-2.83.6-4.75 3.14-4.6 6.04v.53c.3 3.33 3.1 5.84 6.4 5.76h24.98c3.04-.3 5.4-2.64 5.68-5.7.28-3.43-2.24-6.5-5.68-6.78-.44-.05-.72-.45-.64-.87.08-1.83-1-3.44-2.72-4.13-1.32-.37-2.64.13-3.44 1.24-.2.25-.44.38-.76.33-.28-.05-.48-.24-.6-.5-.6-1.6-1.4-2.85-2.6-4.04-2.7-2.8-6.6-3.6-10.13-2-3.24 1.6-5.2 4.63-5.32 8.24-.04.4-.04.74 0 1.14.04.4-.2.76-.6.84z" stroke="#fff" stroke-opacity="0" fill="#fff"/><g><use xlink:href="#u" transform="matrix(1,0,0,1,-349,120) translate(0 17.77777777777778)"/><use xlink:href="#K" transform="matrix(1,0,0,1,-349,120) translate(55.92592592592592 17.77777777777778)"/></g><defs><path d="M703-1476c426 0 599 333 586 795-11 408-187 701-584 701-422 0-587-333-587-793 0-282 106-507 280-617 89-56 190-86 305-86zm2 1333c312 0 393-279 393-632 0-308-116-536-395-536-269 0-394 232-394 523v107c-4 298 123 538 396 538" id="L"/><path d="M456 20C285 20 205-92 206-268v-671H9v-143h197v-262h185v262h202v143H391v671c-9 125 92 149 207 118V0c-49 13-96 20-142 20" id="M"/><path d="M589-945c-131 0-219 81-264 174V0H140v-1536h185v585c82-101 189-151 320-151 229 0 346 129 346 387V0H806v-716c-2-153-65-229-217-229" id="N"/><path d="M599-131c141 0 220-65 285-146l113 88C906-50 770 20 589 20 281 21 93-214 93-545c0-223 93-397 233-485 74-48 154-72 240-72 300 2 449 218 445 537v77H278c0 197 129 357 321 357zm227-509c-3-180-88-310-260-310-170 0-264 140-282 310h542" id="O"/><path d="M663-916c-163-27-288 18-338 148V0H140v-1082h180l3 125c61-97 147-145 258-145 36 0 63 5 82 14v172" id="P"/><g id="a"><use transform="matrix(0.0087890625,0,0,0.0087890625,0,0)" xlink:href="#L"/><use transform="matrix(0.0087890625,0,0,0.0087890625,12.375,0)" xlink:href="#M"/><use transform="matrix(0.0087890625,0,0,0.0087890625,18.2548828125,0)" xlink:href="#N"/><use transform="matrix(0.0087890625,0,0,0.0087890625,28.1689453125,0)" xlink:href="#O"/><use transform="matrix(0.0087890625,0,0,0.0087890625,37.705078125,0)" xlink:href="#P"/></g><path d="M973-380H363L226 0H28l556-1456h168L1309 0h-197zM421-538h495l-248-681" id="Q"/><path d="M483-459l28 192 41-173 288-1016h162l281 1016 40 176 31-196 226-996h193L1420 0h-175L945-1061l-23-111-23 111L588 0H413L61-1456h192" id="R"/><path d="M631-137c179 0 314-70 314-231 0-71-25-127-75-166s-141-77-272-115c-165-47-285-106-360-175s-112-154-112-255c0-245 231-397 495-397 206 0 369 89 449 218 43 68 65 142 65 223H942c0-184-129-283-321-283-172 0-299 76-301 236 0 59 26 109 76 150s135 78 256 113c205 59 345 116 436 256 35 53 50 119 50 193-2 256-231 398-507 390C333 12 90-129 80-422h193c0 187 160 285 358 285" id="S"/><g id="b"><use transform="matrix(0.0087890625,0,0,0.0087890625,0,0)" xlink:href="#Q"/><use transform="matrix(0.0087890625,0,0,0.0087890625,11.7421875,0)" xlink:href="#R"/><use transform="matrix(0.0087890625,0,0,0.0087890625,27.7119140625,0)" xlink:href="#S"/></g><path d="M538-131c121 0 232-49 232-156 0-50-20-88-56-117-73-60-334-92-420-143-92-55-162-110-162-238 0-190 192-317 400-317 223 0 414 129 413 338H759c0-108-110-186-227-186-119 0-215 53-215 159 0 45 18 78 53 101 76 52 331 90 416 139 98 57 169 115 169 251C955-92 760 20 538 20c-176 0-314-68-386-174-38-55-57-115-57-179h185c6 129 116 202 258 202" id="T"/><path d="M497-251l268-831h189L566 0H425L33-1082h189" id="U"/><path d="M341 0H156v-1082h185V0zm-91-1264c-68 0-108-42-109-105 0-62 41-107 109-107s110 44 110 107-42 105-110 105" id="V"/><path d="M277-555c0 244 77 420 297 424 127 2 249-93 255-210h175C980-127 805 20 574 20 258 20 81-222 92-562c11-319 164-533 481-540 237-5 426 165 431 392H829c-7-133-115-242-256-240-209 4-296 166-296 395" id="W"/><g id="c"><use transform="matrix(0.0087890625,0,0,0.0087890625,0,0)" xlink:href="#T"/><use transform="matrix(0.0087890625,0,0,0.0087890625,9.28125,0)" xlink:href="#O"/><use transform="matrix(0.0087890625,0,0,0.0087890625,18.8173828125,0)" xlink:href="#P"/><use transform="matrix(0.0087890625,0,0,0.0087890625,25.06640625,0)" xlink:href="#U"/><use transform="matrix(0.0087890625,0,0,0.0087890625,33.78515625,0)" xlink:href="#V"/><use transform="matrix(0.0087890625,0,0,0.0087890625,38.1533203125,0)" xlink:href="#W"/><use transform="matrix(0.0087890625,0,0,0.0087890625,47.5751953125,0)" xlink:href="#O"/><use transform="matrix(0.0087890625,0,0,0.0087890625,57.111328125,0)" xlink:href="#T"/></g><linearGradient gradientUnits="userSpaceOnUse" id="d" x1="680" y1="1680" x2="800" y2="1560"><stop offset="0%" stop-color="#2e27ad"/><stop offset="100%" stop-color="#527fff"/></linearGradient><path fill="#3a414a" d="M205 0l-28-72H64L36 0H1l101-248h38L239 0h-34zm-38-99l-47-123c-12 45-31 82-46 123h93" id="X"/><path fill="#3a414a" d="M210-169c-67 3-38 105-44 169h-31v-121c0-29-5-50-35-48C34-165 62-65 56 0H25l-1-190h30c1 10-1 24 2 32 10-44 99-50 107 0 11-21 27-35 58-36 85-2 47 119 55 194h-31v-121c0-29-5-49-35-48" id="Y"/><path fill="#3a414a" d="M141-36C126-15 110 5 73 4 37 3 15-17 15-53c-1-64 63-63 125-63 3-35-9-54-41-54-24 1-41 7-42 31l-33-3c5-37 33-52 76-52 45 0 72 20 72 64v82c-1 20 7 32 28 27v20c-31 9-61-2-59-35zM48-53c0 20 12 33 32 33 41-3 63-29 60-74-43 2-92-5-92 41" id="Z"/><path fill="#3a414a" d="M9 0v-24l116-142H16v-24h144v24L44-24h123V0H9" id="aa"/><path fill="#3a414a" d="M100-194c62-1 85 37 85 99 1 63-27 99-86 99S16-35 15-95c0-66 28-99 85-99zM99-20c44 1 53-31 53-75 0-43-8-75-51-75s-53 32-53 75 10 74 51 75" id="ab"/><path fill="#3a414a" d="M117-194c89-4 53 116 60 194h-32v-121c0-31-8-49-39-48C34-167 62-67 57 0H25l-1-190h30c1 10-1 24 2 32 11-22 29-35 61-36" id="ac"/><g id="e"><use transform="matrix(0.06172839506172839,0,0,0.06172839506172839,0,0)" xlink:href="#X"/><use transform="matrix(0.06172839506172839,0,0,0.06172839506172839,14.814814814814813,0)" xlink:href="#Y"/><use transform="matrix(0.06172839506172839,0,0,0.06172839506172839,33.2716049382716,0)" xlink:href="#Z"/><use transform="matrix(0.06172839506172839,0,0,0.06172839506172839,45.61728395061728,0)" xlink:href="#aa"/><use transform="matrix(0.06172839506172839,0,0,0.06172839506172839,56.72839506172839,0)" xlink:href="#ab"/><use transform="matrix(0.06172839506172839,0,0,0.06172839506172839,69.07407407407408,0)" xlink:href="#ac"/></g><path fill="#3a414a" d="M30 0v-248h187v28H63v79h144v27H63v87h162V0H30" id="ad"/><path fill="#3a414a" d="M24 0v-261h32V0H24" id="ae"/><path fill="#3a414a" d="M135-143c-3-34-86-38-87 0 15 53 115 12 119 90S17 21 10-45l28-5c4 36 97 45 98 0-10-56-113-15-118-90-4-57 82-63 122-42 12 7 21 19 24 35" id="af"/><path fill="#3a414a" d="M59-47c-2 24 18 29 38 22v24C64 9 27 4 27-40v-127H5v-23h24l9-43h21v43h35v23H59v120" id="ag"/><path fill="#3a414a" d="M24-231v-30h32v30H24zM24 0v-190h32V0H24" id="ah"/><path fill="#3a414a" d="M212-179c-10-28-35-45-73-45-59 0-87 40-87 99 0 60 29 101 89 101 43 0 62-24 78-52l27 14C228-24 195 4 139 4 59 4 22-46 18-125c-6-104 99-153 187-111 19 9 31 26 39 46" id="ai"/><path fill="#3a414a" d="M96-169c-40 0-48 33-48 73s9 75 48 75c24 0 41-14 43-38l32 2c-6 37-31 61-74 61-59 0-76-41-82-99-10-93 101-131 147-64 4 7 5 14 7 22l-32 3c-4-21-16-35-41-35" id="aj"/><path fill="#3a414a" d="M106-169C34-169 62-67 57 0H25v-261h32l-1 103c12-21 28-36 61-36 89 0 53 116 60 194h-32v-121c2-32-8-49-39-48" id="ak"/><path fill="#3a414a" d="M100-194c63 0 86 42 84 106H49c0 40 14 67 53 68 26 1 43-12 49-29l28 8c-11 28-37 45-77 45C44 4 14-33 15-96c1-61 26-98 85-98zm52 81c6-60-76-77-97-28-3 7-6 17-6 28h103" id="al"/><g id="f"><use transform="matrix(0.06172839506172839,0,0,0.06172839506172839,0,0)" xlink:href="#ad"/><use transform="matrix(0.06172839506172839,0,0,0.06172839506172839,14.814814814814813,0)" xlink:href="#ae"/><use transform="matrix(0.06172839506172839,0,0,0.06172839506172839,19.691358024691354,0)" xlink:href="#Z"/><use transform="matrix(0.06172839506172839,0,0,0.06172839506172839,32.03703703703703,0)" xlink:href="#af"/><use transform="matrix(0.06172839506172839,0,0,0.06172839506172839,43.14814814814814,0)" xlink:href="#ag"/><use transform="matrix(0.06172839506172839,0,0,0.06172839506172839,49.32098765432098,0)" xlink:href="#ah"/><use transform="matrix(0.06172839506172839,0,0,0.06172839506172839,54.197530864197525,0)" xlink:href="#ai"/><use transform="matrix(0.06172839506172839,0,0,0.06172839506172839,70.18518518518518,0)" xlink:href="#Z"/><use transform="matrix(0.06172839506172839,0,0,0.06172839506172839,82.53086419753086,0)" xlink:href="#aj"/><use transform="matrix(0.06172839506172839,0,0,0.06172839506172839,93.64197530864197,0)" xlink:href="#ak"/><use transform="matrix(0.06172839506172839,0,0,0.06172839506172839,105.98765432098766,0)" xlink:href="#al"/></g><path fill="#3a414a" d="M233-177c-1 41-23 64-60 70L243 0h-38l-65-103H63V0H30v-248c88 3 205-21 203 71zM63-129c60-2 137 13 137-47 0-61-80-42-137-45v92" id="am"/><path fill="#3a414a" d="M30-248c118-7 216 8 213 122C240-48 200 0 122 0H30v-248zM63-27c89 8 146-16 146-99s-60-101-146-95v194" id="an"/><path fill="#3a414a" d="M185-189c-5-48-123-54-124 2 14 75 158 14 163 119 3 78-121 87-175 55-17-10-28-26-33-46l33-7c5 56 141 63 141-1 0-78-155-14-162-118-5-82 145-84 179-34 5 7 8 16 11 25" id="ao"/><g id="g"><use transform="matrix(0.06172839506172839,0,0,0.06172839506172839,0,0)" xlink:href="#am"/><use transform="matrix(0.06172839506172839,0,0,0.06172839506172839,15.987654320987653,0)" xlink:href="#an"/><use transform="matrix(0.06172839506172839,0,0,0.06172839506172839,31.975308641975307,0)" xlink:href="#ao"/></g><path fill="#3a414a" d="M240 0l2-218c-23 76-54 145-80 218h-23L58-218 59 0H30v-248h44l77 211c21-75 51-140 76-211h43V0h-30" id="ap"/><path fill="#3a414a" d="M84 4C-5 8 30-112 23-190h32v120c0 31 7 50 39 49 72-2 45-101 50-169h31l1 190h-30c-1-10 1-25-2-33-11 22-28 36-60 37" id="aq"/><g id="h"><use transform="matrix(0.06172839506172839,0,0,0.06172839506172839,0,0)" xlink:href="#ap"/><use transform="matrix(0.06172839506172839,0,0,0.06172839506172839,18.456790123456788,0)" xlink:href="#aq"/><use transform="matrix(0.06172839506172839,0,0,0.06172839506172839,30.80246913580247,0)" xlink:href="#ae"/><use transform="matrix(0.06172839506172839,0,0,0.06172839506172839,35.67901234567901,0)" xlink:href="#ag"/><use transform="matrix(0.06172839506172839,0,0,0.06172839506172839,41.851851851851855,0)" xlink:href="#ah"/></g><path fill="#3a414a" d="M209 0H11v-25l151-195H24v-28h176v25L50-27h159V0" id="ar"/><g id="i"><use transform="matrix(0.06172839506172839,0,0,0.06172839506172839,0,0)" xlink:href="#X"/><use transform="matrix(0.06172839506172839,0,0,0.06172839506172839,14.814814814814813,0)" xlink:href="#ar"/></g><path fill="#3a414a" d="M160-131c35 5 61 23 61 61C221 17 115-2 30 0v-248c76 3 177-17 177 60 0 33-19 50-47 57zm-97-11c50-1 110 9 110-42 0-47-63-36-110-37v79zm0 115c55-2 124 14 124-45 0-56-70-42-124-44v89" id="as"/><g id="j"><use transform="matrix(0.06172839506172839,0,0,0.06172839506172839,0,0)" xlink:href="#an"/><use transform="matrix(0.06172839506172839,0,0,0.06172839506172839,15.987654320987653,0)" xlink:href="#as"/></g><path fill="#3a414a" d="M114-163C36-179 61-72 57 0H25l-1-190h30c1 12-1 29 2 39 6-27 23-49 58-41v29" id="at"/><g id="k"><use transform="matrix(0.06172839506172839,0,0,0.06172839506172839,0,0)" xlink:href="#ai"/><use transform="matrix(0.06172839506172839,0,0,0.06172839506172839,15.987654320987653,0)" xlink:href="#ae"/><use transform="matrix(0.06172839506172839,0,0,0.06172839506172839,20.864197530864196,0)" xlink:href="#aq"/><use transform="matrix(0.06172839506172839,0,0,0.06172839506172839,33.20987654320987,0)" xlink:href="#af"/><use transform="matrix(0.06172839506172839,0,0,0.06172839506172839,44.32098765432099,0)" xlink:href="#ag"/><use transform="matrix(0.06172839506172839,0,0,0.06172839506172839,50.49382716049383,0)" xlink:href="#al"/><use transform="matrix(0.06172839506172839,0,0,0.06172839506172839,62.839506172839506,0)" xlink:href="#at"/></g><path fill="#3a414a" d="M137 0h-34L2-248h35l83 218 83-218h36" id="au"/><path fill="#3a414a" d="M30-248c87 1 191-15 191 75 0 78-77 80-158 76V0H30v-248zm33 125c57 0 124 11 124-50 0-59-68-47-124-48v98" id="av"/><g id="l"><use transform="matrix(0.06172839506172839,0,0,0.06172839506172839,0,0)" xlink:href="#au"/><use transform="matrix(0.06172839506172839,0,0,0.06172839506172839,14.814814814814813,0)" xlink:href="#av"/><use transform="matrix(0.06172839506172839,0,0,0.06172839506172839,29.629629629629626,0)" xlink:href="#ai"/></g><path fill="#3a414a" d="M115-194c53 0 69 39 70 98 0 66-23 100-70 100C84 3 66-7 56-30L54 0H23l1-261h32v101c10-23 28-34 59-34zm-8 174c40 0 45-34 45-75 0-40-5-75-45-74-42 0-51 32-51 76 0 43 10 73 51 73" id="aw"/><path fill="#3a414a" d="M143 0L79-87 56-68V0H24v-261h32v163l83-92h37l-77 82L181 0h-38" id="ax"/><g id="m"><use transform="matrix(0.06172839506172839,0,0,0.06172839506172839,0,0)" xlink:href="#aw"/><use transform="matrix(0.06172839506172839,0,0,0.06172839506172839,12.345679012345679,0)" xlink:href="#aq"/><use transform="matrix(0.06172839506172839,0,0,0.06172839506172839,24.691358024691358,0)" xlink:href="#aj"/><use transform="matrix(0.06172839506172839,0,0,0.06172839506172839,35.80246913580247,0)" xlink:href="#ax"/><use transform="matrix(0.06172839506172839,0,0,0.06172839506172839,46.91358024691358,0)" xlink:href="#al"/><use transform="matrix(0.06172839506172839,0,0,0.06172839506172839,59.25925925925926,0)" xlink:href="#ag"/></g><path fill="#3a414a" d="M206 0h-36l-40-164L89 0H53L-1-190h32L70-26l43-164h34l41 164 42-164h31" id="ay"/><g id="n"><use transform="matrix(0.06172839506172839,0,0,0.06172839506172839,0,0)" xlink:href="#ay"/><use transform="matrix(0.06172839506172839,0,0,0.06172839506172839,15.987654320987653,0)" xlink:href="#ah"/><use transform="matrix(0.06172839506172839,0,0,0.06172839506172839,20.864197530864196,0)" xlink:href="#ag"/><use transform="matrix(0.06172839506172839,0,0,0.06172839506172839,27.037037037037035,0)" xlink:href="#ak"/></g><path fill="#3a414a" d="M24-231v-30h32v30H24zM-9 49c24 4 33-6 33-30v-209h32V24c2 40-23 58-65 49V49" id="az"/><g id="o"><use transform="matrix(0.06172839506172839,0,0,0.06172839506172839,0,0)" xlink:href="#ab"/><use transform="matrix(0.06172839506172839,0,0,0.06172839506172839,12.345679012345679,0)" xlink:href="#aw"/><use transform="matrix(0.06172839506172839,0,0,0.06172839506172839,24.691358024691358,0)" xlink:href="#az"/><use transform="matrix(0.06172839506172839,0,0,0.06172839506172839,29.5679012345679,0)" xlink:href="#al"/><use transform="matrix(0.06172839506172839,0,0,0.06172839506172839,41.913580246913575,0)" xlink:href="#aj"/><use transform="matrix(0.06172839506172839,0,0,0.06172839506172839,53.02469135802468,0)" xlink:href="#ag"/><use transform="matrix(0.06172839506172839,0,0,0.06172839506172839,59.197530864197525,0)" xlink:href="#af"/></g><path fill="#3a414a" d="M30 0v-248h33v221h125V0H30" id="aA"/><path fill="#3a414a" d="M85-194c31 0 48 13 60 33l-1-100h32l1 261h-30c-2-10 0-23-3-31C134-8 116 4 85 4 32 4 16-35 15-94c0-66 23-100 70-100zm9 24c-40 0-46 34-46 75 0 40 6 74 45 74 42 0 51-32 51-76 0-42-9-74-50-73" id="aB"/><g id="p"><use transform="matrix(0.06172839506172839,0,0,0.06172839506172839,0,0)" xlink:href="#aA"/><use transform="matrix(0.06172839506172839,0,0,0.06172839506172839,12.345679012345679,0)" xlink:href="#ab"/><use transform="matrix(0.06172839506172839,0,0,0.06172839506172839,24.691358024691358,0)" xlink:href="#Z"/><use transform="matrix(0.06172839506172839,0,0,0.06172839506172839,37.03703703703704,0)" xlink:href="#aB"/></g><path fill="#3a414a" d="M177-190C167-65 218 103 67 71c-23-6-38-20-44-43l32-5c15 47 100 32 89-28v-30C133-14 115 1 83 1 29 1 15-40 15-95c0-56 16-97 71-98 29-1 48 16 59 35 1-10 0-23 2-32h30zM94-22c36 0 50-32 50-73 0-42-14-75-50-75-39 0-46 34-46 75s6 73 46 73" id="aC"/><g id="q"><use transform="matrix(0.06172839506172839,0,0,0.06172839506172839,0,0)" xlink:href="#as"/><use transform="matrix(0.06172839506172839,0,0,0.06172839506172839,14.814814814814813,0)" xlink:href="#Z"/><use transform="matrix(0.06172839506172839,0,0,0.06172839506172839,27.160493827160494,0)" xlink:href="#ae"/><use transform="matrix(0.06172839506172839,0,0,0.06172839506172839,32.03703703703704,0)" xlink:href="#Z"/><use transform="matrix(0.06172839506172839,0,0,0.06172839506172839,44.382716049382715,0)" xlink:href="#ac"/><use transform="matrix(0.06172839506172839,0,0,0.06172839506172839,56.72839506172839,0)" xlink:href="#aj"/><use transform="matrix(0.06172839506172839,0,0,0.06172839506172839,67.8395061728395,0)" xlink:href="#ah"/><use transform="matrix(0.06172839506172839,0,0,0.06172839506172839,72.71604938271605,0)" xlink:href="#ac"/><use transform="matrix(0.06172839506172839,0,0,0.06172839506172839,85.06172839506173,0)" xlink:href="#aC"/></g><path fill="#3a414a" d="M115-194c55 1 70 41 70 98S169 2 115 4C84 4 66-9 55-30l1 105H24l-1-265h31l2 30c10-21 28-34 59-34zm-8 174c40 0 45-34 45-75s-6-73-45-74c-42 0-51 32-51 76 0 43 10 73 51 73" id="aD"/><g id="r"><use transform="matrix(0.06172839506172839,0,0,0.06172839506172839,0,0)" xlink:href="#X"/><use transform="matrix(0.06172839506172839,0,0,0.06172839506172839,14.814814814814813,0)" xlink:href="#aD"/><use transform="matrix(0.06172839506172839,0,0,0.06172839506172839,27.160493827160494,0)" xlink:href="#aD"/><use transform="matrix(0.06172839506172839,0,0,0.06172839506172839,39.50617283950617,0)" xlink:href="#ae"/><use transform="matrix(0.06172839506172839,0,0,0.06172839506172839,44.382716049382715,0)" xlink:href="#ah"/><use transform="matrix(0.06172839506172839,0,0,0.06172839506172839,49.25925925925926,0)" xlink:href="#aj"/><use transform="matrix(0.06172839506172839,0,0,0.06172839506172839,60.37037037037037,0)" xlink:href="#Z"/><use transform="matrix(0.06172839506172839,0,0,0.06172839506172839,72.71604938271605,0)" xlink:href="#ag"/><use transform="matrix(0.06172839506172839,0,0,0.06172839506172839,78.88888888888889,0)" xlink:href="#ah"/><use transform="matrix(0.06172839506172839,0,0,0.06172839506172839,83.76543209876543,0)" xlink:href="#ab"/><use transform="matrix(0.06172839506172839,0,0,0.06172839506172839,96.11111111111111,0)" xlink:href="#ac"/></g><g id="s"><use transform="matrix(0.06172839506172839,0,0,0.06172839506172839,0,0)" xlink:href="#aA"/><use transform="matrix(0.06172839506172839,0,0,0.06172839506172839,12.345679012345679,0)" xlink:href="#ab"/><use transform="matrix(0.06172839506172839,0,0,0.06172839506172839,24.691358024691358,0)" xlink:href="#Z"/><use transform="matrix(0.06172839506172839,0,0,0.06172839506172839,37.03703703703704,0)" xlink:href="#aB"/></g><g id="t"><use transform="matrix(0.06172839506172839,0,0,0.06172839506172839,0,0)" xlink:href="#as"/><use transform="matrix(0.06172839506172839,0,0,0.06172839506172839,14.814814814814813,0)" xlink:href="#Z"/><use transform="matrix(0.06172839506172839,0,0,0.06172839506172839,27.160493827160494,0)" xlink:href="#ae"/><use transform="matrix(0.06172839506172839,0,0,0.06172839506172839,32.03703703703704,0)" xlink:href="#Z"/><use transform="matrix(0.06172839506172839,0,0,0.06172839506172839,44.382716049382715,0)" xlink:href="#ac"/><use transform="matrix(0.06172839506172839,0,0,0.06172839506172839,56.72839506172839,0)" xlink:href="#aj"/><use transform="matrix(0.06172839506172839,0,0,0.06172839506172839,67.8395061728395,0)" xlink:href="#al"/><use transform="matrix(0.06172839506172839,0,0,0.06172839506172839,80.18518518518519,0)" xlink:href="#at"/></g><path fill="#3a414a" d="M266 0h-40l-56-210L115 0H75L2-248h35L96-30l15-64 43-154h32l59 218 59-218h35" id="aE"/><g id="u"><use transform="matrix(0.06172839506172839,0,0,0.06172839506172839,0,0)" xlink:href="#X"/><use transform="matrix(0.06172839506172839,0,0,0.06172839506172839,14.012345679012345,0)" xlink:href="#aE"/><use transform="matrix(0.06172839506172839,0,0,0.06172839506172839,34.938271604938265,0)" xlink:href="#ao"/></g><path fill="#3a414a" d="M63-220v92h138v28H63V0H30v-248h175v28H63" id="aF"/><g id="v"><use transform="matrix(0.06172839506172839,0,0,0.06172839506172839,0,0)" xlink:href="#aF"/><use transform="matrix(0.06172839506172839,0,0,0.06172839506172839,13.518518518518517,0)" xlink:href="#Z"/><use transform="matrix(0.06172839506172839,0,0,0.06172839506172839,25.864197530864196,0)" xlink:href="#at"/><use transform="matrix(0.06172839506172839,0,0,0.06172839506172839,33.20987654320987,0)" xlink:href="#aC"/><use transform="matrix(0.06172839506172839,0,0,0.06172839506172839,45.55555555555555,0)" xlink:href="#Z"/><use transform="matrix(0.06172839506172839,0,0,0.06172839506172839,57.90123456790123,0)" xlink:href="#ag"/><use transform="matrix(0.06172839506172839,0,0,0.06172839506172839,64.07407407407406,0)" xlink:href="#al"/></g><g id="w"><use transform="matrix(0.06172839506172839,0,0,0.06172839506172839,0,0)" xlink:href="#X"/><use transform="matrix(0.06172839506172839,0,0,0.06172839506172839,14.814814814814813,0)" xlink:href="#aq"/><use transform="matrix(0.06172839506172839,0,0,0.06172839506172839,27.160493827160494,0)" xlink:href="#ag"/><use transform="matrix(0.06172839506172839,0,0,0.06172839506172839,33.333333333333336,0)" xlink:href="#ab"/></g><g id="x"><use transform="matrix(0.06172839506172839,0,0,0.06172839506172839,0,0)" xlink:href="#ao"/><use transform="matrix(0.06172839506172839,0,0,0.06172839506172839,14.814814814814813,0)" xlink:href="#aj"/><use transform="matrix(0.06172839506172839,0,0,0.06172839506172839,25.925925925925924,0)" xlink:href="#Z"/><use transform="matrix(0.06172839506172839,0,0,0.06172839506172839,38.2716049382716,0)" xlink:href="#ae"/><use transform="matrix(0.06172839506172839,0,0,0.06172839506172839,43.148148148148145,0)" xlink:href="#ah"/><use transform="matrix(0.06172839506172839,0,0,0.06172839506172839,48.02469135802469,0)" xlink:href="#ac"/><use transform="matrix(0.06172839506172839,0,0,0.06172839506172839,60.37037037037037,0)" xlink:href="#aC"/></g><g id="y"><use transform="matrix(0.06172839506172839,0,0,0.06172839506172839,0,0)" xlink:href="#aC"/><use transform="matrix(0.06172839506172839,0,0,0.06172839506172839,12.345679012345679,0)" xlink:href="#at"/><use transform="matrix(0.06172839506172839,0,0,0.06172839506172839,19.691358024691358,0)" xlink:href="#ab"/><use transform="matrix(0.06172839506172839,0,0,0.06172839506172839,32.03703703703704,0)" xlink:href="#aq"/><use transform="matrix(0.06172839506172839,0,0,0.06172839506172839,44.382716049382715,0)" xlink:href="#aD"/></g><g id="z"><use transform="matrix(0.06172839506172839,0,0,0.06172839506172839,0,0)" xlink:href="#ad"/><use transform="matrix(0.06172839506172839,0,0,0.06172839506172839,14.814814814814813,0)" xlink:href="#ai"/><use transform="matrix(0.06172839506172839,0,0,0.06172839506172839,30.80246913580247,0)" xlink:href="#am"/></g><g id="A"><use transform="matrix(0.06172839506172839,0,0,0.06172839506172839,0,0)" xlink:href="#ao"/><use transform="matrix(0.06172839506172839,0,0,0.06172839506172839,14.814814814814813,0)" xlink:href="#al"/><use transform="matrix(0.06172839506172839,0,0,0.06172839506172839,27.160493827160494,0)" xlink:href="#aj"/><use transform="matrix(0.06172839506172839,0,0,0.06172839506172839,38.27160493827161,0)" xlink:href="#at"/><use transform="matrix(0.06172839506172839,0,0,0.06172839506172839,45.617283950617285,0)" xlink:href="#al"/><use transform="matrix(0.06172839506172839,0,0,0.06172839506172839,57.96296296296296,0)" xlink:href="#ag"/><use transform="matrix(0.06172839506172839,0,0,0.06172839506172839,64.1358024691358,0)" xlink:href="#af"/></g><g id="B"><use transform="matrix(0.06172839506172839,0,0,0.06172839506172839,0,0)" xlink:href="#ap"/><use transform="matrix(0.06172839506172839,0,0,0.06172839506172839,18.456790123456788,0)" xlink:href="#Z"/><use transform="matrix(0.06172839506172839,0,0,0.06172839506172839,30.80246913580247,0)" xlink:href="#ac"/><use transform="matrix(0.06172839506172839,0,0,0.06172839506172839,43.148148148148145,0)" xlink:href="#Z"/><use transform="matrix(0.06172839506172839,0,0,0.06172839506172839,55.49382716049382,0)" xlink:href="#aC"/><use transform="matrix(0.06172839506172839,0,0,0.06172839506172839,67.8395061728395,0)" xlink:href="#al"/><use transform="matrix(0.06172839506172839,0,0,0.06172839506172839,80.18518518518519,0)" xlink:href="#at"/></g><g id="C"><use transform="matrix(0.06172839506172839,0,0,0.06172839506172839,0,0)" xlink:href="#ai"/><use transform="matrix(0.06172839506172839,0,0,0.06172839506172839,15.987654320987653,0)" xlink:href="#ae"/><use transform="matrix(0.06172839506172839,0,0,0.06172839506172839,20.864197530864196,0)" xlink:href="#ab"/><use transform="matrix(0.06172839506172839,0,0,0.06172839506172839,33.20987654320987,0)" xlink:href="#aq"/><use transform="matrix(0.06172839506172839,0,0,0.06172839506172839,45.55555555555555,0)" xlink:href="#aB"/><use transform="matrix(0.06172839506172839,0,0,0.06172839506172839,57.90123456790123,0)" xlink:href="#aE"/><use transform="matrix(0.06172839506172839,0,0,0.06172839506172839,78.02469135802468,0)" xlink:href="#Z"/><use transform="matrix(0.06172839506172839,0,0,0.06172839506172839,90.37037037037037,0)" xlink:href="#ag"/><use transform="matrix(0.06172839506172839,0,0,0.06172839506172839,96.5432098765432,0)" xlink:href="#aj"/><use transform="matrix(0.06172839506172839,0,0,0.06172839506172839,107.65432098765432,0)" xlink:href="#ak"/></g><path fill="#3a414a" d="M33 0v-248h34V0H33" id="aG"/><g id="D"><use transform="matrix(0.06172839506172839,0,0,0.06172839506172839,0,0)" xlink:href="#aG"/><use transform="matrix(0.06172839506172839,0,0,0.06172839506172839,6.172839506172839,0)" xlink:href="#ac"/><use transform="matrix(0.06172839506172839,0,0,0.06172839506172839,18.51851851851852,0)" xlink:href="#ag"/><use transform="matrix(0.06172839506172839,0,0,0.06172839506172839,24.691358024691358,0)" xlink:href="#al"/><use transform="matrix(0.06172839506172839,0,0,0.06172839506172839,37.03703703703704,0)" xlink:href="#at"/><use transform="matrix(0.06172839506172839,0,0,0.06172839506172839,44.382716049382715,0)" xlink:href="#ac"/><use transform="matrix(0.06172839506172839,0,0,0.06172839506172839,56.72839506172839,0)" xlink:href="#al"/><use transform="matrix(0.06172839506172839,0,0,0.06172839506172839,69.07407407407408,0)" xlink:href="#ag"/></g><path fill="#3a414a" d="M179-190L93 31C79 59 56 82 12 73V49c39 6 53-20 64-50L1-190h34L92-34l54-156h33" id="aH"/><g id="E"><use transform="matrix(0.06172839506172839,0,0,0.06172839506172839,0,0)" xlink:href="#aC"/><use transform="matrix(0.06172839506172839,0,0,0.06172839506172839,12.345679012345679,0)" xlink:href="#Z"/><use transform="matrix(0.06172839506172839,0,0,0.06172839506172839,24.691358024691358,0)" xlink:href="#ag"/><use transform="matrix(0.06172839506172839,0,0,0.06172839506172839,30.864197530864196,0)" xlink:href="#al"/><use transform="matrix(0.06172839506172839,0,0,0.06172839506172839,43.20987654320987,0)" xlink:href="#ay"/><use transform="matrix(0.06172839506172839,0,0,0.06172839506172839,59.197530864197525,0)" xlink:href="#Z"/><use transform="matrix(0.06172839506172839,0,0,0.06172839506172839,71.5432098765432,0)" xlink:href="#aH"/></g><g id="F"><use transform="matrix(0.06172839506172839,0,0,0.06172839506172839,0,0)" xlink:href="#ad"/><use transform="matrix(0.06172839506172839,0,0,0.06172839506172839,14.814814814814813,0)" xlink:href="#ai"/><use transform="matrix(0.06172839506172839,0,0,0.06172839506172839,30.80246913580247,0)" xlink:href="#ao"/></g><g id="G"><use transform="matrix(0.06172839506172839,0,0,0.06172839506172839,0,0)" xlink:href="#ai"/><use transform="matrix(0.06172839506172839,0,0,0.06172839506172839,15.987654320987653,0)" xlink:href="#ae"/><use transform="matrix(0.06172839506172839,0,0,0.06172839506172839,20.864197530864196,0)" xlink:href="#aq"/><use transform="matrix(0.06172839506172839,0,0,0.06172839506172839,33.20987654320987,0)" xlink:href="#af"/><use transform="matrix(0.06172839506172839,0,0,0.06172839506172839,44.32098765432099,0)" xlink:href="#ag"/><use transform="matrix(0.06172839506172839,0,0,0.06172839506172839,50.49382716049383,0)" xlink:href="#al"/><use transform="matrix(0.06172839506172839,0,0,0.06172839506172839,62.839506172839506,0)" xlink:href="#at"/></g><g id="H"><use transform="matrix(0.06172839506172839,0,0,0.06172839506172839,0,0)" xlink:href="#ai"/><use transform="matrix(0.06172839506172839,0,0,0.06172839506172839,15.987654320987653,0)" xlink:href="#ab"/><use transform="matrix(0.06172839506172839,0,0,0.06172839506172839,28.333333333333332,0)" xlink:href="#ac"/><use transform="matrix(0.06172839506172839,0,0,0.06172839506172839,40.67901234567901,0)" xlink:href="#ag"/><use transform="matrix(0.06172839506172839,0,0,0.06172839506172839,46.851851851851855,0)" xlink:href="#Z"/><use transform="matrix(0.06172839506172839,0,0,0.06172839506172839,59.19753086419753,0)" xlink:href="#ah"/><use transform="matrix(0.06172839506172839,0,0,0.06172839506172839,64.07407407407408,0)" xlink:href="#ac"/><use transform="matrix(0.06172839506172839,0,0,0.06172839506172839,76.41975308641976,0)" xlink:href="#al"/><use transform="matrix(0.06172839506172839,0,0,0.06172839506172839,88.76543209876544,0)" xlink:href="#at"/></g><g id="J"><use transform="matrix(0.06172839506172839,0,0,0.06172839506172839,0,0)" xlink:href="#as"/><use transform="matrix(0.06172839506172839,0,0,0.06172839506172839,14.814814814814813,0)" xlink:href="#Z"/><use transform="matrix(0.06172839506172839,0,0,0.06172839506172839,27.160493827160494,0)" xlink:href="#af"/><use transform="matrix(0.06172839506172839,0,0,0.06172839506172839,38.27160493827161,0)" xlink:href="#ag"/><use transform="matrix(0.06172839506172839,0,0,0.06172839506172839,44.44444444444445,0)" xlink:href="#ah"/><use transform="matrix(0.06172839506172839,0,0,0.06172839506172839,49.320987654320994,0)" xlink:href="#ab"/><use transform="matrix(0.06172839506172839,0,0,0.06172839506172839,61.66666666666667,0)" xlink:href="#ac"/></g><filter id="I" filterUnits="objectBoundingBox" x="-.05" y="-.04" width="1.11" height="1.11"><feOffset result="offOut" in="SourceAlpha" dy="2"/><feGaussianBlur result="blurOut" in="offOut" stdDeviation="3.5"/><feColorMatrix result="colorOut" in="blurOut" values="0 0 0 0 0 0 0 0 0 0 0 0 0 0 0 0 0 0 0.5019607843137255 0"/><feBlend in="SourceGraphic" in2="colorOut"/></filter><g id="K"><use transform="matrix(0.06172839506172839,0,0,0.06172839506172839,0,0)" xlink:href="#ai"/><use transform="matrix(0.06172839506172839,0,0,0.06172839506172839,15.987654320987653,0)" xlink:href="#ae"/><use transform="matrix(0.06172839506172839,0,0,0.06172839506172839,20.864197530864196,0)" xlink:href="#ab"/><use transform="matrix(0.06172839506172839,0,0,0.06172839506172839,33.20987654320987,0)" xlink:href="#aq"/><use transform="matrix(0.06172839506172839,0,0,0.06172839506172839,45.55555555555555,0)" xlink:href="#aB"/></g></defs></g></svg>